<?xml version="1.0" standalone="no"?><!DOCTYPE svg PUBLIC "-//W3C//DTD SVG 1.1//EN" "http://www.w3.org/Graphics/SVG/1.1/DTD/svg11.dtd"><svg t="1628654901206" class="icon" viewBox="0 0 1024 1024" version="1.1" xmlns="http://www.w3.org/2000/svg" p-id="2945" xmlns:xlink="http://www.w3.org/1999/xlink" width="200" height="200"><defs><style type="text/css"></style></defs><path d="M896 85.333333H128a128 128 0 0 0-128 128v597.333334a128 128 0 0 0 128 128h768a128 128 0 0 0 128-128V213.333333a128 128 0 0 0-128-128zM85.333333 426.666667h298.666667a85.333333 85.333333 0 0 1 0 170.666666H85.333333z m853.333334 384a42.666667 42.666667 0 0 1-42.666667 42.666666H128a42.666667 42.666667 0 0 1-42.666667-42.666666v-128h298.666667a170.666667 170.666667 0 0 0 0-341.333334H85.333333V213.333333a42.666667 42.666667 0 0 1 42.666667-42.666666h768a42.666667 42.666667 0 0 1 42.666667 42.666666z" p-id="2946"></path><path d="M375.466667 512m-42.666667 0a42.666667 42.666667 0 1 0 85.333333 0 42.666667 42.666667 0 1 0-85.333333 0Z" p-id="2947"></path></svg>